<mxfile host="app.diagrams.net" agent="Mozilla/5.0 (Windows NT 10.0; Win64; x64) AppleWebKit/537.36 (KHTML, like Gecko) Chrome/136.0.0.0 Safari/537.36 Edg/136.0.0.0" version="27.0.2">
  <diagram name="第 1 页" id="B0keDvUHvSe1jq40opK7">
    <mxGraphModel dx="1205" dy="773" grid="0" gridSize="10" guides="1" tooltips="1" connect="1" arrows="1" fold="1" page="0" pageScale="1" pageWidth="1390" pageHeight="980" background="light-dark(#FFFFFF,#FFFFFF)" math="0" shadow="0">
      <root>
        <mxCell id="0" />
        <mxCell id="1" parent="0" />
        <mxCell id="jMfArj-X275loONJLrQ1-4" style="edgeStyle=orthogonalEdgeStyle;rounded=0;orthogonalLoop=1;jettySize=auto;html=1;exitX=0.5;exitY=1;exitDx=0;exitDy=0;entryX=0.5;entryY=0;entryDx=0;entryDy=0;labelBackgroundColor=none;strokeColor=#23445D;fontColor=default;fontStyle=1;fontSize=16;labelBorderColor=none;textShadow=0;" edge="1" parent="1" source="jMfArj-X275loONJLrQ1-2" target="jMfArj-X275loONJLrQ1-3">
          <mxGeometry relative="1" as="geometry" />
        </mxCell>
        <mxCell id="jMfArj-X275loONJLrQ1-5" value="检索" style="edgeLabel;html=1;align=center;verticalAlign=middle;resizable=0;points=[];labelBackgroundColor=none;fontColor=#FFFFFF;fontStyle=1;fontSize=16;labelBorderColor=none;textShadow=0;" vertex="1" connectable="0" parent="jMfArj-X275loONJLrQ1-4">
          <mxGeometry x="-0.1222" y="1" relative="1" as="geometry">
            <mxPoint x="-1" y="4" as="offset" />
          </mxGeometry>
        </mxCell>
        <mxCell id="jMfArj-X275loONJLrQ1-2" value="查询" style="rounded=1;whiteSpace=wrap;html=1;labelBackgroundColor=none;fillColor=#182E3E;strokeColor=#FFFFFF;fontColor=#FFFFFF;fontStyle=1;fontSize=16;labelBorderColor=none;textShadow=0;" vertex="1" parent="1">
          <mxGeometry x="240" y="140" width="90" height="40" as="geometry" />
        </mxCell>
        <mxCell id="jMfArj-X275loONJLrQ1-8" style="edgeStyle=orthogonalEdgeStyle;rounded=0;orthogonalLoop=1;jettySize=auto;html=1;exitX=0.5;exitY=1;exitDx=0;exitDy=0;entryX=0.5;entryY=0;entryDx=0;entryDy=0;labelBackgroundColor=none;strokeColor=#23445D;fontColor=default;fontStyle=1;fontSize=16;labelBorderColor=none;textShadow=0;" edge="1" parent="1" source="jMfArj-X275loONJLrQ1-3" target="jMfArj-X275loONJLrQ1-7">
          <mxGeometry relative="1" as="geometry" />
        </mxCell>
        <mxCell id="jMfArj-X275loONJLrQ1-9" value="生成" style="edgeLabel;html=1;align=center;verticalAlign=middle;resizable=0;points=[];labelBackgroundColor=none;fontColor=#FFFFFF;fontStyle=1;fontSize=16;labelBorderColor=none;textShadow=0;" vertex="1" connectable="0" parent="jMfArj-X275loONJLrQ1-8">
          <mxGeometry x="0.0111" y="-1" relative="1" as="geometry">
            <mxPoint as="offset" />
          </mxGeometry>
        </mxCell>
        <mxCell id="jMfArj-X275loONJLrQ1-3" value="大型语言模型" style="rounded=1;whiteSpace=wrap;html=1;labelBackgroundColor=none;fillColor=#182E3E;strokeColor=#FFFFFF;fontColor=#FFFFFF;fontStyle=1;fontSize=16;labelBorderColor=none;textShadow=0;" vertex="1" parent="1">
          <mxGeometry x="225" y="240" width="120" height="60" as="geometry" />
        </mxCell>
        <mxCell id="jMfArj-X275loONJLrQ1-7" value="答案" style="rounded=1;whiteSpace=wrap;html=1;labelBackgroundColor=none;fillColor=#182E3E;strokeColor=#FFFFFF;fontColor=#FFFFFF;fontStyle=1;fontSize=16;labelBorderColor=none;textShadow=0;" vertex="1" parent="1">
          <mxGeometry x="240" y="360" width="90" height="40" as="geometry" />
        </mxCell>
        <mxCell id="jMfArj-X275loONJLrQ1-10" value="一次性检索" style="text;html=1;align=center;verticalAlign=middle;resizable=0;points=[];autosize=1;strokeColor=none;fillColor=none;labelBackgroundColor=none;fontColor=#FFFFFF;fontStyle=1;fontSize=16;labelBorderColor=none;textShadow=0;" vertex="1" parent="1">
          <mxGeometry x="238" y="91" width="98" height="31" as="geometry" />
        </mxCell>
        <mxCell id="jMfArj-X275loONJLrQ1-14" style="edgeStyle=orthogonalEdgeStyle;rounded=0;orthogonalLoop=1;jettySize=auto;html=1;exitX=0.5;exitY=1;exitDx=0;exitDy=0;entryX=0;entryY=0.5;entryDx=0;entryDy=0;labelBackgroundColor=none;strokeColor=#23445D;fontColor=default;fontStyle=1;fontSize=16;labelBorderColor=none;textShadow=0;" edge="1" parent="1" source="jMfArj-X275loONJLrQ1-11" target="jMfArj-X275loONJLrQ1-13">
          <mxGeometry relative="1" as="geometry" />
        </mxCell>
        <mxCell id="jMfArj-X275loONJLrQ1-11" value="查询" style="rounded=1;whiteSpace=wrap;html=1;labelBackgroundColor=none;fillColor=#182E3E;strokeColor=#FFFFFF;fontColor=#FFFFFF;fontStyle=1;fontSize=16;labelBorderColor=none;textShadow=0;" vertex="1" parent="1">
          <mxGeometry x="380" y="140" width="90" height="40" as="geometry" />
        </mxCell>
        <mxCell id="jMfArj-X275loONJLrQ1-18" style="edgeStyle=orthogonalEdgeStyle;rounded=0;orthogonalLoop=1;jettySize=auto;html=1;exitX=0.5;exitY=1;exitDx=0;exitDy=0;entryX=1;entryY=0.5;entryDx=0;entryDy=0;labelBackgroundColor=none;strokeColor=#23445D;fontColor=default;fontStyle=1;fontSize=16;labelBorderColor=none;textShadow=0;" edge="1" parent="1" source="jMfArj-X275loONJLrQ1-13" target="jMfArj-X275loONJLrQ1-17">
          <mxGeometry relative="1" as="geometry" />
        </mxCell>
        <mxCell id="jMfArj-X275loONJLrQ1-13" value="LLM" style="rounded=1;whiteSpace=wrap;html=1;labelBackgroundColor=none;fillColor=#182E3E;strokeColor=#FFFFFF;fontColor=#FFFFFF;fontStyle=1;fontSize=16;labelBorderColor=none;textShadow=0;" vertex="1" parent="1">
          <mxGeometry x="490" y="190" width="90" height="40" as="geometry" />
        </mxCell>
        <mxCell id="jMfArj-X275loONJLrQ1-15" value="迭代" style="text;html=1;align=center;verticalAlign=middle;resizable=0;points=[];autosize=1;strokeColor=none;fillColor=none;labelBackgroundColor=none;fontColor=#FFFFFF;fontStyle=1;fontSize=16;labelBorderColor=none;textShadow=0;" vertex="1" parent="1">
          <mxGeometry x="430" y="181" width="50" height="31" as="geometry" />
        </mxCell>
        <mxCell id="jMfArj-X275loONJLrQ1-20" style="edgeStyle=orthogonalEdgeStyle;rounded=0;orthogonalLoop=1;jettySize=auto;html=1;exitX=0.5;exitY=1;exitDx=0;exitDy=0;entryX=0;entryY=0.5;entryDx=0;entryDy=0;labelBackgroundColor=none;strokeColor=#23445D;fontColor=default;fontStyle=1;fontSize=16;labelBorderColor=none;textShadow=0;" edge="1" parent="1" source="jMfArj-X275loONJLrQ1-17" target="jMfArj-X275loONJLrQ1-19">
          <mxGeometry relative="1" as="geometry" />
        </mxCell>
        <mxCell id="jMfArj-X275loONJLrQ1-17" value="输出" style="rounded=1;whiteSpace=wrap;html=1;labelBackgroundColor=none;fillColor=#182E3E;strokeColor=#FFFFFF;fontColor=#FFFFFF;fontStyle=1;fontSize=16;labelBorderColor=none;textShadow=0;" vertex="1" parent="1">
          <mxGeometry x="380" y="240" width="90" height="40" as="geometry" />
        </mxCell>
        <mxCell id="jMfArj-X275loONJLrQ1-23" style="edgeStyle=orthogonalEdgeStyle;rounded=0;orthogonalLoop=1;jettySize=auto;html=1;exitX=0.5;exitY=1;exitDx=0;exitDy=0;entryX=1;entryY=0.5;entryDx=0;entryDy=0;labelBackgroundColor=none;strokeColor=#23445D;fontColor=default;fontStyle=1;fontSize=16;labelBorderColor=none;textShadow=0;" edge="1" parent="1" source="jMfArj-X275loONJLrQ1-19" target="jMfArj-X275loONJLrQ1-22">
          <mxGeometry relative="1" as="geometry" />
        </mxCell>
        <mxCell id="jMfArj-X275loONJLrQ1-19" value="LLM" style="rounded=1;whiteSpace=wrap;html=1;labelBackgroundColor=none;fillColor=#182E3E;strokeColor=#FFFFFF;fontColor=#FFFFFF;fontStyle=1;fontSize=16;labelBorderColor=none;textShadow=0;" vertex="1" parent="1">
          <mxGeometry x="490" y="290" width="90" height="40" as="geometry" />
        </mxCell>
        <mxCell id="jMfArj-X275loONJLrQ1-21" value="迭代" style="text;html=1;align=center;verticalAlign=middle;resizable=0;points=[];autosize=1;strokeColor=none;fillColor=none;labelBackgroundColor=none;fontColor=#FFFFFF;fontStyle=1;fontSize=16;labelBorderColor=none;textShadow=0;" vertex="1" parent="1">
          <mxGeometry x="430" y="281" width="50" height="31" as="geometry" />
        </mxCell>
        <mxCell id="jMfArj-X275loONJLrQ1-25" style="edgeStyle=orthogonalEdgeStyle;rounded=0;orthogonalLoop=1;jettySize=auto;html=1;exitX=0.5;exitY=1;exitDx=0;exitDy=0;entryX=0.5;entryY=0;entryDx=0;entryDy=0;labelBackgroundColor=none;strokeColor=#23445D;fontColor=default;fontStyle=1;fontSize=16;labelBorderColor=none;textShadow=0;" edge="1" parent="1" source="jMfArj-X275loONJLrQ1-22" target="jMfArj-X275loONJLrQ1-24">
          <mxGeometry relative="1" as="geometry" />
        </mxCell>
        <mxCell id="jMfArj-X275loONJLrQ1-27" value="……" style="edgeLabel;html=1;align=center;verticalAlign=middle;resizable=0;points=[];labelBackgroundColor=none;fontColor=#FFFFFF;fontStyle=1;fontSize=16;labelBorderColor=none;textShadow=0;" vertex="1" connectable="0" parent="jMfArj-X275loONJLrQ1-25">
          <mxGeometry x="-0.2333" y="-1" relative="1" as="geometry">
            <mxPoint as="offset" />
          </mxGeometry>
        </mxCell>
        <mxCell id="jMfArj-X275loONJLrQ1-22" value="输出" style="rounded=1;whiteSpace=wrap;html=1;labelBackgroundColor=none;fillColor=#182E3E;strokeColor=#FFFFFF;fontColor=#FFFFFF;fontStyle=1;fontSize=16;labelBorderColor=none;textShadow=0;" vertex="1" parent="1">
          <mxGeometry x="380" y="340" width="90" height="40" as="geometry" />
        </mxCell>
        <mxCell id="jMfArj-X275loONJLrQ1-24" value="答案" style="rounded=1;whiteSpace=wrap;html=1;labelBackgroundColor=none;fillColor=#182E3E;strokeColor=#FFFFFF;fontColor=#FFFFFF;fontStyle=1;fontSize=16;labelBorderColor=none;textShadow=0;" vertex="1" parent="1">
          <mxGeometry x="380" y="420" width="90" height="40" as="geometry" />
        </mxCell>
        <mxCell id="jMfArj-X275loONJLrQ1-28" value="迭代检索" style="text;html=1;align=center;verticalAlign=middle;resizable=0;points=[];autosize=1;strokeColor=none;fillColor=none;labelBackgroundColor=none;fontColor=#FFFFFF;fontStyle=1;fontSize=16;labelBorderColor=none;textShadow=0;" vertex="1" parent="1">
          <mxGeometry x="424" y="91" width="82" height="31" as="geometry" />
        </mxCell>
        <mxCell id="jMfArj-X275loONJLrQ1-31" style="edgeStyle=orthogonalEdgeStyle;rounded=0;orthogonalLoop=1;jettySize=auto;html=1;exitX=0.5;exitY=1;exitDx=0;exitDy=0;entryX=0.5;entryY=0;entryDx=0;entryDy=0;labelBackgroundColor=none;strokeColor=#23445D;fontColor=default;fontStyle=1;fontSize=16;labelBorderColor=none;textShadow=0;" edge="1" parent="1" source="jMfArj-X275loONJLrQ1-29" target="jMfArj-X275loONJLrQ1-30">
          <mxGeometry relative="1" as="geometry" />
        </mxCell>
        <mxCell id="jMfArj-X275loONJLrQ1-29" value="查询" style="rounded=1;whiteSpace=wrap;html=1;labelBackgroundColor=none;fillColor=#182E3E;strokeColor=#FFFFFF;fontColor=#FFFFFF;fontStyle=1;fontSize=16;labelBorderColor=none;textShadow=0;" vertex="1" parent="1">
          <mxGeometry x="625" y="140" width="90" height="40" as="geometry" />
        </mxCell>
        <mxCell id="jMfArj-X275loONJLrQ1-33" value="生成" style="edgeStyle=orthogonalEdgeStyle;rounded=0;orthogonalLoop=1;jettySize=auto;html=1;exitX=0.5;exitY=1;exitDx=0;exitDy=0;entryX=0.5;entryY=0;entryDx=0;entryDy=0;labelBackgroundColor=none;strokeColor=#23445D;fontColor=default;fontStyle=1;fontSize=16;labelBorderColor=none;textShadow=0;" edge="1" parent="1" source="jMfArj-X275loONJLrQ1-30" target="jMfArj-X275loONJLrQ1-32">
          <mxGeometry relative="1" as="geometry" />
        </mxCell>
        <mxCell id="jMfArj-X275loONJLrQ1-30" value="大型语言模型" style="rounded=1;whiteSpace=wrap;html=1;labelBackgroundColor=none;fillColor=#182E3E;strokeColor=#FFFFFF;fontColor=#FFFFFF;fontStyle=1;fontSize=16;labelBorderColor=none;textShadow=0;" vertex="1" parent="1">
          <mxGeometry x="610" y="200" width="120" height="60" as="geometry" />
        </mxCell>
        <mxCell id="jMfArj-X275loONJLrQ1-37" style="edgeStyle=orthogonalEdgeStyle;rounded=0;orthogonalLoop=1;jettySize=auto;html=1;exitX=0.5;exitY=1;exitDx=0;exitDy=0;entryX=0;entryY=0.5;entryDx=0;entryDy=0;labelBackgroundColor=none;strokeColor=#23445D;fontColor=default;fontStyle=1;fontSize=16;labelBorderColor=none;textShadow=0;" edge="1" parent="1" source="jMfArj-X275loONJLrQ1-32" target="jMfArj-X275loONJLrQ1-36">
          <mxGeometry relative="1" as="geometry" />
        </mxCell>
        <mxCell id="jMfArj-X275loONJLrQ1-39" value="检索" style="edgeLabel;html=1;align=center;verticalAlign=middle;resizable=0;points=[];labelBackgroundColor=none;fontColor=#FFFFFF;fontStyle=1;fontSize=16;labelBorderColor=none;textShadow=0;" vertex="1" connectable="0" parent="jMfArj-X275loONJLrQ1-37">
          <mxGeometry x="-0.4222" y="-1" relative="1" as="geometry">
            <mxPoint x="1" as="offset" />
          </mxGeometry>
        </mxCell>
        <mxCell id="jMfArj-X275loONJLrQ1-32" value="答案" style="rounded=1;whiteSpace=wrap;html=1;labelBackgroundColor=none;fillColor=#182E3E;strokeColor=#FFFFFF;fontColor=#FFFFFF;fontStyle=1;fontSize=16;labelBorderColor=none;textShadow=0;" vertex="1" parent="1">
          <mxGeometry x="625" y="300" width="90" height="40" as="geometry" />
        </mxCell>
        <mxCell id="jMfArj-X275loONJLrQ1-38" style="edgeStyle=orthogonalEdgeStyle;rounded=0;orthogonalLoop=1;jettySize=auto;html=1;exitX=0.5;exitY=0;exitDx=0;exitDy=0;entryX=1;entryY=0.5;entryDx=0;entryDy=0;labelBackgroundColor=none;strokeColor=#23445D;fontColor=default;fontStyle=1;fontSize=16;labelBorderColor=none;textShadow=0;" edge="1" parent="1" source="jMfArj-X275loONJLrQ1-36" target="jMfArj-X275loONJLrQ1-32">
          <mxGeometry relative="1" as="geometry" />
        </mxCell>
        <mxCell id="jMfArj-X275loONJLrQ1-40" value="修改" style="edgeLabel;html=1;align=center;verticalAlign=middle;resizable=0;points=[];labelBackgroundColor=none;fontColor=#FFFFFF;fontStyle=1;fontSize=16;labelBorderColor=none;textShadow=0;" vertex="1" connectable="0" parent="jMfArj-X275loONJLrQ1-38">
          <mxGeometry x="-0.2825" y="-3" relative="1" as="geometry">
            <mxPoint x="-3" y="8" as="offset" />
          </mxGeometry>
        </mxCell>
        <mxCell id="jMfArj-X275loONJLrQ1-36" value="修订器" style="rounded=1;whiteSpace=wrap;html=1;labelBackgroundColor=none;fillColor=#182E3E;strokeColor=#FFFFFF;fontColor=#FFFFFF;fontStyle=1;fontSize=16;labelBorderColor=none;textShadow=0;" vertex="1" parent="1">
          <mxGeometry x="725" y="370" width="90" height="40" as="geometry" />
        </mxCell>
        <mxCell id="jMfArj-X275loONJLrQ1-41" value="后期检索" style="text;html=1;align=center;verticalAlign=middle;resizable=0;points=[];autosize=1;strokeColor=none;fillColor=none;labelBackgroundColor=none;fontColor=#FFFFFF;fontStyle=1;fontSize=16;labelBorderColor=none;textShadow=0;" vertex="1" parent="1">
          <mxGeometry x="636" y="91" width="82" height="31" as="geometry" />
        </mxCell>
      </root>
    </mxGraphModel>
  </diagram>
</mxfile>
